PathFileType	4	(X/Y/Z)	/Users/itak/Documents/Research/Walk-IL/dataset/trc/00556_00009.trc
DataRate	CameraRate	NumFrames	NumMarkers	Units	OrigDataRate	OrigDataStartFrame	OrigNumFrames
100.000000	100.000000	4	55	mm	100.000000	79	318
Frame#	Time	RPSI			LPSI			L3			STRN			T10			C7			CLAV			RBAK			LBAK			LSHO			LUPA			LAEL			LAOL			LWTS			LWPS			LFRA			LIFD			LHPS			LHTS			RSHO			RUPA			RAEL			RAOL			RWTS			RWPS			RFRA			RIFD			RHTS			RHPS			RBHD			LFHD			RFHD			LBHD			LHIP			RHIP			RASI			LASI			LKNE			LTHI			LANK			LTIP			LTOE			LMT1			LMT5			LHEE			RKNE			RTHI			RANK			RTIP			RTOE			RMT1			RMT5			RHEE			*53			*54			
		X1	Y1	Z1	X2	Y2	Z2	X3	Y3	Z3	X4	Y4	Z4	X5	Y5	Z5	X6	Y6	Z6	X7	Y7	Z7	X8	Y8	Z8	X9	Y9	Z9	X10	Y10	Z10	X11	Y11	Z11	X12	Y12	Z12	X13	Y13	Z13	X14	Y14	Z14	X15	Y15	Z15	X16	Y16	Z16	X17	Y17	Z17	X18	Y18	Z18	X19	Y19	Z19	X20	Y20	Z20	X21	Y21	Z21	X22	Y22	Z22	X23	Y23	Z23	X24	Y24	Z24	X25	Y25	Z25	X26	Y26	Z26	X27	Y27	Z27	X28	Y28	Z28	X29	Y29	Z29	X30	Y30	Z30	X31	Y31	Z31	X32	Y32	Z32	X33	Y33	Z33	X34	Y34	Z34	X35	Y35	Z35	X36	Y36	Z36	X37	Y37	Z37	X38	Y38	Z38	X39	Y39	Z39	X40	Y40	Z40	X41	Y41	Z41	X42	Y42	Z42	X43	Y43	Z43	X44	Y44	Z44	X45	Y45	Z45	X46	Y46	Z46	X47	Y47	Z47	X48	Y48	Z48	X49	Y49	Z49	X50	Y50	Z50	X51	Y51	Z51	X52	Y52	Z52	X53	Y53	Z53	X54	Y54	Z54	X55	Y55	Z55	

80	0.79	-1185.951171875	1009.431396484375	-80.25545501708984	-1148.53662109375	1011.99658203125	-208.4154815673828	-1147.188110351562	1113.284912109375	-143.0283050537109	-891.6947021484375	1267.796142578125	-94.52664184570312	-1137.742065429688	1238.277587890625	-143.0980224609375	-1049.817749023438	1501.572387695312	-112.9073791503906	-892.7789916992188	1379.580810546875	-94.76891326904297	-1154.003295898438	1388.616333007812	-43.50872039794922	-1074.390380859375	1456.210571289062	-211.3063659667969	-958.1838989257812	1471.606689453125	-269.6123046875	-958.8381958007812	1347.107299804688	-351.3818359375	-933.7105102539062	1126.3544921875	-364.8133544921875	-1033.636962890625	1117.037963867188	-348.5570678710938	-849.7254028320312	897.8477783203125	-270.4705505371094	-862.8790283203125	866.2133178710938	-350.2611083984375	-905.3519897460938	1042.238159179688	-358.0761413574219	-833.0264282226562	731.3356323242188	-260.5716857910156	-850.7178344726562	808.6172485351562	-334.8872985839844	-817.5328979492188	824.7010498046875	-277.1609497070312	-1024.7158203125	1456.795288085938	46.91485595703125	-1061.281860351562	1396.37255859375	108.920295715332	-1092.736328125	1112.557373046875	160.9289703369141	-1149.064697265625	1097.658813476562	136.1046752929688	-958.1165771484375	895.8104858398438	109.3253860473633	-1000.584533691406	875.8053588867188	178.0714263916016	-1083.842407226562	1056.869873046875	168.6856384277344	-945.4166259765625	723.4790649414062	121.3911209106445	-926.4295043945312	806.1365966796875	128.51318359375	-980.2593383789062	803.5048217773438	180.1977844238281	-940.36181640625	1667.8671875	-23.27050590515137	-764.9707641601562	1647.90380859375	-132.6693420410156	-804.2550048828125	1648.280883789062	6.028061389923096	-888.7383422851562	1664.181030273438	-180.6843719482422	-983.4781494140625	918.2858276367188	-294.0421142578125	-1101.425415039062	930.43115234375	66.97281646728516	-1000.775573730469	956.2640991210938	33.58758163452148	-930.5660400390625	948.7156372070312	-232.57666015625	-933.5684814453125	486.055419921875	-216.2209777832031	-947.1488037109375	651.0005493164062	-260.6139831542969	-1086.672241210938	31.25921630859375	-236.0898895263672	-1030.031982421875	244.8145751953125	-236.1652526855469	-895.0496215820312	45.55590057373047	-136.3757629394531	-973.5025024414062	43.86705017089844	-116.0542602539062	-964.6668090820312	36.05618667602539	-221.6658935546875	-1167.5810546875	30.11640357971191	-197.2010955810547	-1026.209838867188	488.6122436523438	55.04446029663086	-1058.37060546875	778.581298828125	83.32368469238281	-1187.96337890625	35.89646911621094	14.92897129058838	-1041.388793945312	340.8567810058594	43.5788459777832	-966.4984741210938	57.69709777832031	32.22990798950195	-1015.087280273438	46.97624206542969	-24.46981620788574	-1065.12890625	47.52167892456055	66.68679046630859	-1225.64599609375	20.58718109130859	-52.68398284912109	nan	nan	nan	nan	nan	nan	
81	0.8	-1183.36376953125	1009.41455078125	-79.92385101318359	-1145.91259765625	1011.793090820312	-208.0907135009766	-1144.737060546875	1113.019287109375	-142.9317169189453	-889.2324829101562	1267.799194335938	-94.45175933837891	-1135.2216796875	1238.05810546875	-143.1357727050781	-1047.632690429688	1501.43359375	-113.0438690185547	-890.4877319335938	1379.552124023438	-94.71994781494141	-1151.7978515625	1388.382934570312	-43.70444869995117	-1072.088745117188	1456.01806640625	-211.4346618652344	-955.8391723632812	1471.568481445312	-269.7112426757812	-956.84912109375	1347.094848632812	-351.4956970214844	-932.4326171875	1126.432373046875	-365.1771545410156	-1032.419921875	1117.072631835938	-348.8663940429688	-847.1340942382812	899.4130859375	-269.2810363769531	-860.3789672851562	866.8369750976562	-348.7500305175781	-903.7603149414062	1042.555541992188	-357.9615783691406	-830.6012573242188	732.4146728515625	-257.5002746582031	-847.7784423828125	809.556884765625	-332.8665466308594	-814.3294067382812	826.5145874023438	-275.3878173828125	-1022.6875	1456.650634765625	46.79513931274414	-1059.22607421875	1396.22509765625	108.7720947265625	-1090.412719726562	1112.348510742188	160.7221527099609	-1146.796020507812	1097.468017578125	135.9844970703125	-955.854736328125	895.6024780273438	108.8570251464844	-998.1847534179688	875.6318969726562	177.6771850585938	-1081.496337890625	1056.67919921875	168.4518890380859	-942.9420166015625	723.3677368164062	120.9681549072266	-924.00048828125	806.058349609375	128.0663909912109	-977.7259521484375	803.3746337890625	179.8102874755859	-938.0971069335938	1667.814697265625	-23.32277679443359	-762.7235107421875	1647.69384765625	-132.6312103271484	-802.032958984375	1648.1494140625	6.024065017700195	-886.4452514648438	1664.056396484375	-180.6909484863281	-980.4173583984375	917.5182495117188	-293.3819274902344	-1098.982177734375	930.4906616210938	67.49333190917969	-998.2996215820312	956.1700439453125	33.85317611694336	-927.946533203125	948.3936767578125	-232.1834564208984	-931.8363647460938	485.4777221679688	-215.8144378662109	-945.0568237304688	650.529296875	-260.1423645019531	-1086.7880859375	31.27862739562988	-236.0744934082031	-1029.41357421875	244.7103424072266	-236.0590362548828	-895.2916259765625	46.32632064819336	-136.343994140625	-973.725341796875	44.30425262451172	-116.0660934448242	-964.9432373046875	36.33640289306641	-221.6316833496094	-1167.778686523438	29.91018104553223	-197.3123016357422	-1025.047729492188	488.2773132324219	54.9521484375	-1056.117553710938	778.436279296875	83.48026275634766	-1188.230102539062	35.86395263671875	14.8579568862915	-1040.83349609375	340.5750122070312	43.42802047729492	-966.943603515625	59.48505783081055	31.54739761352539	-1015.617553710938	48.14365005493164	-24.96743011474609	-1065.4326171875	48.51565933227539	66.2412109375	-1225.930541992188	20.07613754272461	-52.72583389282227	nan	nan	nan	nan	nan	nan	
82	0.8100000000000001	-1180.58837890625	1009.411560058594	-79.55112457275391	-1143.083984375	1011.583801269531	-207.7232818603516	-1142.108154296875	1112.730712890625	-142.8285217285156	-886.6526489257812	1267.828735351562	-94.36125946044922	-1132.5439453125	1237.823608398438	-143.1756896972656	-1045.37451171875	1501.297241210938	-113.1763534545898	-888.0906982421875	1379.577514648438	-94.67703247070312	-1149.502197265625	1388.1298828125	-43.92748641967773	-1069.704711914062	1455.817626953125	-211.5568084716797	-953.43359375	1471.553833007812	-269.8114929199219	-954.8262939453125	1347.117919921875	-351.6537475585938	-931.2036743164062	1126.546997070312	-365.6216735839844	-1031.205810546875	1117.156372070312	-349.1983947753906	-844.701416015625	900.9320678710938	-268.23974609375	-858.0167236328125	867.46435546875	-347.3843688964844	-902.2671508789062	1042.907592773438	-357.9469909667969	-828.3361206054688	733.4658813476562	-254.5916900634766	-844.9779663085938	810.4960327148438	-331.0090026855469	-811.39208984375	828.23193359375	-273.7628479003906	-1020.590576171875	1456.511474609375	46.66463470458984	-1057.114868164062	1396.089599609375	108.6033096313477	-1088.0615234375	1112.141967773438	160.4859008789062	-1144.482299804688	1097.275024414062	135.8076782226562	-953.51025390625	895.4558715820312	108.4284286499023	-995.7281494140625	875.4674682617188	177.2807006835938	-1079.11669921875	1056.48583984375	168.1881103515625	-940.3015747070312	723.2962036132812	120.5430603027344	-921.4839477539062	805.9871826171875	127.6562728881836	-975.1007080078125	803.260986328125	179.4084167480469	-935.7818603515625	1667.779663085938	-23.37904739379883	-760.4230346679688	1647.541625976562	-132.5962982177734	-799.763916015625	1648.090454101562	6.018232822418213	-884.116455078125	1663.964965820312	-180.7069549560547	-977.7692260742188	917.18017578125	-292.9695434570312	-1096.349731445312	930.5615234375	68.05710601806641	-995.6555786132812	956.0879516601562	34.1877326965332	-925.131103515625	948.0628662109375	-231.7112884521484	-930.06494140625	484.8583679199219	-215.3670806884766	-942.8412475585938	650.0346069335938	-259.6273193359375	-1086.919067382812	31.29530906677246	-236.0390472412109	-1028.764404296875	244.5966949462891	-235.9473724365234	-895.5372314453125	47.05949783325195	-136.3092041015625	-973.9159545898438	44.71870040893555	-116.1022872924805	-965.2164916992188	36.67477416992188	-221.6144866943359	-1167.981567382812	29.71705436706543	-197.3990325927734	-1023.829467773438	487.9373168945312	54.79985809326172	-1053.677734375	778.2799682617188	83.62464141845703	-1188.45703125	35.8463020324707	14.77557182312012	-1040.234497070312	340.2920532226562	43.21981811523438	-967.3529052734375	61.14941787719727	30.80926704406738	-1016.115234375	49.22822189331055	-25.51951026916504	-1065.681396484375	49.45401382446289	65.76212310791016	-1226.198486328125	19.6074161529541	-52.75446319580078	nan	nan	nan	nan	nan	nan	
83	0.8200000000000001	-1177.620727539062	1009.413757324219	-79.14460754394531	-1140.045532226562	1011.362854003906	-207.3205261230469	-1139.298706054688	1112.415649414062	-142.7193908691406	-883.9560546875	1267.871459960938	-94.25424194335938	-1129.712158203125	1237.563598632812	-143.2136535644531	-1043.042358398438	1501.155395507812	-113.3059692382812	-885.586669921875	1379.651000976562	-94.64382934570312	-1147.11328125	1387.851684570312	-44.18075942993164	-1067.234619140625	1455.602172851562	-211.6739044189453	-950.9627685546875	1471.552734375	-269.9136352539062	-952.7573852539062	1347.169067382812	-351.8589172363281	-930.017333984375	1126.680786132812	-366.1339721679688	-1029.992919921875	1117.28955078125	-349.5467529296875	-842.4306640625	902.3665161132812	-267.3587646484375	-855.7794189453125	868.0750732421875	-346.1806945800781	-900.8555297851562	1043.276245117188	-358.0287475585938	-826.1483154296875	734.5076904296875	-251.8777618408203	-842.3341064453125	811.4000244140625	-329.3307495117188	-808.7155151367188	829.8178100585938	-272.3023376464844	-1018.422790527344	1456.374755859375	46.52312088012695	-1054.94921875	1395.957153320312	108.4140472412109	-1085.684204101562	1111.933227539062	160.2216644287109	-1142.125732421875	1097.071899414062	135.5772094726562	-951.08203125	895.3722534179688	108.013069152832	-993.2175903320312	875.3074340820312	176.8810272216797	-1076.710083007812	1056.28466796875	167.9003143310547	-937.4812622070312	723.2667846679688	120.1145629882812	-918.8709106445312	805.94287109375	127.2720184326172	-972.382080078125	803.1632690429688	178.9913330078125	-933.4240112304688	1667.752685546875	-23.43845558166504	-758.068603515625	1647.44921875	-132.5658721923828	-797.445068359375	1648.09765625	6.010416507720947	-881.752197265625	1663.896728515625	-180.7315216064453	-975.4791259765625	917.233154296875	-292.7862243652344	-1093.529663085938	930.6322021484375	68.65811920166016	-992.8475952148438	956.0082397460938	34.59712219238281	-922.1290893554688	947.7056884765625	-231.1634826660156	-928.2525634765625	484.203125	-214.8810882568359	-940.50634765625	649.5104370117188	-259.0703430175781	-1087.065307617188	31.30728721618652	-235.9858093261719	-1028.099609375	244.4693603515625	-235.8285980224609	-895.7899169921875	47.75809860229492	-136.2761688232422	-974.082275390625	45.10993957519531	-116.1550674438477	-965.4835205078125	37.07209777832031	-221.607421875	-1168.18798828125	29.54062080383301	-197.4591827392578	-1022.550537109375	487.5905151367188	54.60976791381836	-1051.047241210938	778.1002197265625	83.75656890869141	-1188.64697265625	35.8422966003418	14.68551254272461	-1039.576538085938	339.9973449707031	42.96873092651367	-967.7328491210938	62.67058181762695	30.04548072814941	-1016.570190429688	50.21242523193359	-26.11302947998047	-1065.883666992188	50.32388687133789	65.26347351074219	-1226.446899414062	19.19755172729492	-52.76401138305664	nan	nan	nan	nan	nan	nan	
